<?xml version="1.0" standalone="no"?>
<!DOCTYPE svg PUBLIC "-//W3C//DTD SVG 20010904//EN"
 "http://www.w3.org/TR/2001/REC-SVG-20010904/DTD/svg10.dtd">
<svg version="1.0" xmlns="http://www.w3.org/2000/svg"
 width="466.000000pt" height="218.000000pt" viewBox="0 0 466.000000 218.000000"
 preserveAspectRatio="xMidYMid meet">
<metadata>
Created by potrace 1.15, written by Peter Selinger 2001-2017
</metadata>
<g transform="translate(0.000000,218.000000) scale(0.100000,-0.100000)"
fill="#000000" stroke="none">
<path d="M30 1095 l0 -1065 2300 0 2300 0 0 1065 0 1065 -2300 0 -2300 0 0
-1065z m4520 0 l0 -985 -2220 0 -2220 0 0 985 0 985 2220 0 2220 0 0 -985z"/>
<path d="M706 1446 l-86 -93 0 -322 0 -321 280 0 280 0 0 85 0 85 -195 0 -195
0 0 95 0 95 195 0 195 0 0 85 0 85 -147 1 c-82 0 -168 1 -193 2 l-45 2 -3 63
-3 62 196 0 195 0 0 85 0 85 -194 0 -194 0 -86 -94z"/>
<path d="M1300 1455 l0 -84 83 -3 82 -3 3 -242 2 -243 -85 0 -85 0 0 -85 0
-85 260 0 260 0 0 85 0 85 -90 0 -90 0 0 245 0 245 90 0 90 0 0 85 0 85 -260
0 -260 0 0 -85z"/>
<path d="M1937 1533 c-4 -3 -7 -66 -7 -140 l0 -133 235 -176 c129 -97 235
-182 235 -190 0 -11 -27 -14 -145 -14 l-145 0 0 55 0 55 -90 0 -90 0 0 -140 0
-140 320 0 320 0 0 143 -1 142 -229 170 c-144 107 -229 177 -230 188 0 15 13
17 145 17 l145 0 0 -55 0 -55 85 0 85 0 0 140 0 140 -313 0 c-173 0 -317 -3
-320 -7z"/>
<path d="M2667 1533 c-4 -3 -7 -190 -7 -415 l0 -408 285 0 285 0 0 85 0 85
-195 0 -195 0 0 95 0 95 193 2 192 3 3 83 3 82 -53 0 c-29 1 -117 1 -195 0
l-143 -1 0 66 0 65 195 0 195 0 0 85 0 85 -278 0 c-153 0 -282 -3 -285 -7z"/>
<path d="M3335 1513 c10 -16 24 -37 32 -48 10 -15 13 -95 13 -387 l0 -368 85
0 85 0 0 238 0 237 158 -237 157 -237 88 -1 87 0 0 415 0 415 -85 0 -85 0 -2
-261 -3 -262 -174 262 -174 261 -100 0 -99 0 17 -27z"/>
</g>
</svg>
