<?xml version="1.0" standalone="no"?>
<!DOCTYPE svg PUBLIC "-//W3C//DTD SVG 20010904//EN"
 "http://www.w3.org/TR/2001/REC-SVG-20010904/DTD/svg10.dtd">
<svg version="1.0" xmlns="http://www.w3.org/2000/svg"
 width="218.000000pt" height="218.000000pt" viewBox="0 0 218.000000 218.000000"
 preserveAspectRatio="xMidYMid meet">
<metadata>
Created by potrace 1.15, written by Peter Selinger 2001-2017
</metadata>
<g transform="translate(0.000000,218.000000) scale(0.100000,-0.100000)"
fill="#000000" stroke="none">
<path d="M30 1095 l0 -1065 1065 0 1065 0 0 1065 0 1065 -1065 0 -1065 0 0
-1065z m2050 0 l0 -985 -985 0 -985 0 0 985 0 985 985 0 985 0 0 -985z"/>
<path d="M793 1883 c-19 -21 -86 -95 -149 -164 l-114 -127 0 -666 0 -666 560
0 560 0 0 170 0 170 -390 0 -390 0 0 195 0 195 390 0 390 0 0 170 0 170 -390
0 -390 0 0 120 0 120 390 0 390 0 0 175 0 175 -411 0 -411 0 -35 -37z"/>
</g>
</svg>
